<?xml version="1.0" encoding="iso-8859-1"?>
<!-- Generator: Adobe Illustrator 16.0.0, SVG Export Plug-In . SVG Version: 6.00 Build 0)  -->
<!DOCTYPE svg PUBLIC "-//W3C//DTD SVG 1.1//EN" "http://www.w3.org/Graphics/SVG/1.1/DTD/svg11.dtd">
<svg version="1.1" id="Capa_1" xmlns="http://www.w3.org/2000/svg" xmlns:xlink="http://www.w3.org/1999/xlink" x="0px" y="0px"
	 width="468.6px" height="468.6px" viewBox="0 0 468.6 468.6" style="enable-background:new 0 0 468.6 468.6;" xml:space="preserve"
	>
<g>
	<g>
		<path d="M95.6,239.049c0-9.599,1.9-19.099,5.7-28.699c-7.6,0-13.4,1.9-21,3.8C34.4,225.65,0,265.75,0,315.549
			c0,57.4,47.8,105.201,105.2,105.201c49.7,0,89.9-34.4,101.4-80.301c1.9-7.699,1.9-13.4,3.8-21c-9.6,3.801-19.1,5.701-28.7,5.701
			C133.9,325.15,95.6,286.85,95.6,239.049z"/>
		<polygon points="315.6,124.35 271.6,109.05 248.6,47.85 225.7,109.05 181.7,124.35 225.7,139.65 248.6,200.85 271.6,139.65 		"/>
		<polygon points="325.1,200.85 302.2,262.049 258.2,277.35 302.2,292.65 325.1,353.85 348.1,292.65 392.1,277.35 348.1,262.049 		
			"/>
		<polygon points="438,151.05 420.7,105.15 403.5,151.05 372.9,162.55 403.5,174.05 420.7,219.95 438,174.05 468.6,162.55 		"/>
	</g>
</g>
<g>
</g>
<g>
</g>
<g>
</g>
<g>
</g>
<g>
</g>
<g>
</g>
<g>
</g>
<g>
</g>
<g>
</g>
<g>
</g>
<g>
</g>
<g>
</g>
<g>
</g>
<g>
</g>
<g>
</g>
</svg>
